<svg version="1" xmlns="http://www.w3.org/2000/svg" width="1109.333" height="1109.333" viewBox="0 0 832.000000 832.000000"><path d="M53.6 16l-5 .5 14 14C76.4 44.2 91.9 59 92.6 59c.2 0 1.6 1.2 3.2 2.7 1.5 1.6 4.7 4.3 7 6.1 2.2 1.9 5 4.1 6.1 5 1.1 1 3.3 2.7 4.8 3.9 1.5 1.2 3.7 2.9 4.8 3.8 5.9 4.7 18.6 13.5 19.4 13.5.5 0 1.1.7 1.5 1.5.3.8 1 1.5 1.6 1.5.6 0 5.1 2.7 10 6s9.4 6 10 6c.5 0 1 .4 1 1 0 .5.4 1 .9 1s4.5 2.1 8.8 4.6c16.7 10 47.8 25.8 70.3 35.9 4.7 2.1 11 5 14 6.4 3 1.3 6 2.6 6.5 2.7 1.1.2 23.9 9.6 29 11.9 1.7.7 5.6 2.3 8.8 3.4 11.6 4.3 16.3 6 19.2 7.2 1.7.7 3.2 1.3 3.5 1.4.3.1 1.2.5 2 .8.8.4 6.2 2.2 12 4.2 5.8 1.9 11.3 4 12.2 4.5 1 .6 2.6 1 3.6 1s2.2.3 2.6.7c.4.5 1.2.9 1.7.9.5.1 1.1.3 1.4.4.3.1.8.3 1.3.5.4.1 1.4.5 2.2.8 2.2.9 17.3 5.9 18.5 6.1.6.1 1.5.5 2.1.8.6.4 2.1.9 3.5 1.1 1.3.3 4.1 1.2 6.2 2 2.1.9 3.8 1.6 4 1.5.1-.1 4.5 1.3 9.9 3 8 2.7 10.1 3 12.5 2.1 1.5-.6 3-1 3.3-1 .7.1 7.3-2 8.5-2.8.6-.3 1.5-.6 2.1-.7 3.6-.6 57.3-18.7 71.4-24.1.8-.4 1.8-.7 2.3-.8.4-.2.8-.3 1-.5.1-.1.9-.3 1.7-.5.8-.2 2.9-.9 4.5-1.6 1.7-.7 3.3-1.2 3.8-1.1.4.1.7-.3.7-.8s.3-.9.8-.8c.7.3 20.8-7.1 27.9-10.3 2.3-1 4.8-2 5.5-2.1.7-.2 1.5-.5 1.8-.8.5-.5 6.8-2.9 8.5-3.3.6-.1 1.2-.4 1.5-.7.3-.3 3.2-1.6 6.5-2.9 3.3-1.3 9.4-4 13.5-5.8 4.1-1.9 9.1-4.1 11-5 6.3-2.8 45.3-22.3 52-25.9 17.7-9.8 58.5-35.7 62-39.4.3-.3 4.5-3.7 9.5-7.5 4.9-3.9 9.7-7.7 10.5-8.5.9-.8 3.6-3.1 6-5.1 2.5-2 6.5-5.5 8.9-7.8 2.4-2.3 4.8-4.1 5.3-4.1.4 0 .8-.7.8-1.5s.4-1.5.9-1.5c1.3 0 32.4-31.1 31.7-31.7-.3-.3-3.4-.5-6.8-.3-6.7.2-8.3.2-16.8.1h-19.5c-16.8-.1-28.4-.1-34.5 0h-7c-1.7 0-16.2-.1-23.5 0h-31c-16.8-.1-28.4-.1-34.5 0h-7c-1.7 0-16.2-.1-23.5 0h-31c-16.8-.1-28.4-.1-34.5 0h-7c-1.7 0-16.2-.1-23.5 0h-19c-1.1 0-6.8-.1-12.7-.1-5.9-.1-11.2.2-11.8.5-.5.3-1 .2-1-.2 0-.5-2.9-.6-6.5-.3s-6.5.3-6.5 0c0-.6-9.7-.3-11.5.4-.7.2-1.6.2-1.9-.1-.3-.3-5-.5-10.3-.5-13.8.3-18.9.3-25.8.3h-20c-16.8-.1-28.4-.1-34.5 0h-7c-1.7 0-16.2-.1-23.5 0h-31c-16.8-.1-28.4-.1-34.5 0h-7c-1.7 0-16.2-.1-23.5 0h-31c-16.8-.1-28.4-.1-34.5 0h-16.2c-4.6-.1-12.6-.1-17.8-.2H84c-3.2.1-11.8 0-18.5-.2-3.8-.1-9.2 0-11.9.3z"/><path d="M30.5 139.5c.9 2.2 2.6 6.2 3.6 8.9 1.1 2.8 2.3 5.5 2.7 6 .4.6.7 1.3.7 1.6.1.3 1.8 3.8 3.8 7.7 2.1 4 3.7 7.5 3.7 7.8.1.2 2.3 4.1 5 8.6 2.8 4.4 5 8.2 5 8.4 0 .5 12.2 19.8 13 20.5 1.4 1.3 5 7 5 7.9 0 .5.3 1.1.8 1.3.4.1 3.6 4.3 7.2 9.3 3.5 4.9 6.8 9.4 7.2 10 .5.5 2.2 2.8 3.9 5 9.2 12 20.5 26.1 25.9 32.5 17 19.9 18.2 21.4 20.1 23.5 1 1.1 2.8 3.1 3.8 4.4 2.9 3.3 15 16.9 18.6 20.7 1.7 1.7 7.7 8.2 13.5 14.4 5.8 6.2 14.6 15.5 19.6 20.7l9.2 9.4-5.7 3.6c-11.1 7.1-19.6 12.7-20.1 13.3-.3.3-3.6 2.8-7.5 5.5-7.9 5.6-20.7 15.5-30.8 23.8-14.3 11.9-45.5 43.2-44.3 44.5.3.2 20.2.4 44.2.4 24.1 0 44.2.2 44.7.5.4.3.4 1-.1 1.6-.5.7-4.2 8.4-8.2 17.2-4 8.8-7.9 17.2-8.6 18.7-.8 1.5-1.5 3.1-1.5 3.5-.1.5-1 2.6-2.2 4.8-1.1 2.2-1.9 4-1.8 4 .1 0-.9 2.2-2.3 5-1.3 2.7-2.3 5.1-2.1 5.3.1.1 2.2-.4 4.6-1.2 5.3-1.8 18.5-5.5 21.8-6.2 1.4-.3 2.9-.8 3.5-1.2.6-.3 1.6-.7 2.1-.8 1.8-.3 13-3.5 15.5-4.5 1.4-.5 3.4-1.1 4.5-1.4 1.1-.2 6.1-1.6 11-3 5-1.5 9.7-2.9 10.5-3 .8-.2 6.2-1.8 12-3.6s11.2-3.3 12-3.4c.8-.1 2.2-.5 3-.8.8-.3 4-1.3 7-2.2 3-.9 6.9-2 8.7-2.6 1.8-.5 4-1.2 5-1.4 1-.3 7.9-2.3 15.3-4.5s14.6-4.3 15.8-4.6c1.3-.2 4.3-1.1 6.5-1.9 2.3-.8 4.7-1.5 5.3-1.5.9 0 5.4 8.8 5.4 10.6 0 .3.6 2 1.4 3.7 1.4 3.3 12.3 30.7 17.1 43.2 1.5 3.8 3.3 8.3 4 10 .7 1.6 1.6 4.1 2 5.5.4 1.4 1.1 2.9 1.5 3.5.3.5 1.5 3.2 2.4 6 1 2.7 2.4 6.3 3.1 8 .7 1.6 3.1 7.9 5.4 14 2.3 6 4.6 11.9 5.1 13 1 2.3 3.4 8.7 12.5 32.5 3.6 9.6 7 18.4 7.5 19.5.5 1.1 3 7.6 5.5 14.5 2.6 6.9 5.7 15.2 7 18.5 1.2 3.3 3.2 8.7 4.5 12 1.2 3.3 2.9 7.5 3.7 9.4.8 1.8 1.6 4 1.7 4.7.1.8.8 2 1.5 2.7 1.6 1.6 2 .9 8.2-15.8 2.9-7.7 5.6-14.4 6.1-15 .4-.5.8-1.8.8-3s.7-3 1.5-4.1c.8-1 1.5-2.4 1.5-3.1 0-.6.5-2.4 1.2-4 .6-1.5 1.2-3 1.3-3.3.1-.3.7-1.9 1.4-3.5 2.2-5.4 6.5-17 6.8-18 .2-.9 10.9-28.5 12.8-33 .4-1.1.9-2.5 1-3 .2-.6 2.7-7.3 5.8-15 3-7.7 8-20.5 11.1-28.5 3.1-8 6-15.4 6.5-16.5.5-1.1 2.6-6.5 4.7-12s4.1-10.2 4.4-10.5c.3-.3.6-1.2.8-2 .3-1.3 2.2-6.3 6.3-16.5.7-1.7 1.3-3.5 1.4-4.1.2-.6 1.1-2.9 2.1-5 1.1-2.2 1.9-4.1 2-4.4 0-.3.4-1.4.9-2.5.4-1.1 1.4-3.5 2.1-5.3 1.5-3.6 1.8-3.7 7.6-1.8 4.5 1.5 15.6 4.8 17.3 5.2.6.1 4.2 1.2 8.2 2.4 3.9 1.2 7.8 2.3 8.5 2.4.7.2 2 .6 2.8.9 1.2.5 8.3 2.5 11 3.2 1.4.3 13.3 3.8 19.1 5.6 3.7 1.1 7.5 2.1 8.5 2.3 1.1.3 3.1.9 4.7 1.5 1.5.6 2.7.8 2.7.5 0-.2.9 0 1.9.6 1.1.5 4.3 1.6 7.3 2.4 2.9.8 7.8 2.2 10.8 3.1 3 .9 6.2 1.8 7 2 .8.2 6.2 1.8 12 3.5s11.2 3.3 12 3.5c.8.2 6.8 1.9 13.3 3.8 6.4 1.9 11.7 3.1 11.7 2.8 0-.4-1.1-2.9-2.4-5.7-1.3-2.7-3.4-7.2-4.6-9.9-1.2-2.8-4.2-9.3-6.7-14.5-2.5-5.2-5.2-11.2-6-13.2-.8-2.1-2.8-6.4-4.3-9.5-1.6-3.2-2.6-6.1-2.4-6.4.2-.4 18.8-.8 41.2-.8 50.4 0 47.2 0 47.2-.9 0-.4-3-3.9-6.6-7.7-3.6-3.9-7.5-8.1-8.8-9.5-3.8-4.2-17.7-17.2-24-22.5-3.3-2.8-7.1-6-8.4-7.2-1.3-1.2-4.9-4.1-8-6.5-3.2-2.4-5.9-4.5-6.2-4.8-2.2-2.2-25.4-18.6-34-24-3-1.9-5.6-3.8-5.8-4.2-.2-.5-.9-.8-1.5-.8-.7 0-2-.7-3.1-1.5-1.7-1.3-1.2-2 7.7-11.2 13.8-14.2 30.9-32.5 40.9-43.7 2.3-2.6 5.4-6 6.8-7.6 7.2-7.9 14.7-16.6 22.9-26.5 5.1-6.1 10-11.9 10.9-13 2.4-2.9 10.3-12.9 16.2-20.5 1.9-2.5 3.9-5 4.5-5.6.5-.6 1.7-2.2 2.5-3.4 3.1-4.5 11.9-16.6 13.9-18.9 1.2-1.3 2.1-3 2.1-3.7 0-.7.4-1.4.8-1.6.9-.3 11.2-15.5 11.2-16.4 0-.3 1.1-2 2.5-3.8 1.4-1.8 2.5-3.8 2.5-4.4 0-.7.4-1.2.9-1.2s1.1-.8 1.4-1.8c.3-.9 2-4.2 3.8-7.2 4.7-8.3 11.3-21 13.1-25.5.9-2.2 2.7-6.3 3.9-9 3.8-8.3 3.5-9.1-1.6-4.8-6 5.2-8 6.7-16 12.8-4.4 3.3-10.7 7.8-14 9.9-3.3 2.2-6.2 4.2-6.5 4.5-.3.3-1.8 1.4-3.5 2.4-1.6 1-6.5 3.9-10.8 6.5-14.6 8.8-17.2 10.2-36 19.7-10.3 5.2-19 9.4-19.2 9.5-.3 0-3.1 1.2-6.2 2.5-3.1 1.4-6.7 2.8-8 3.1-1.3.4-2.6 1-2.9 1.5-.3.5-1 .7-1.5.4-.5-.4-.9-.1-.9.4 0 .6-.6 1.1-1.2 1.1-.7 0-8.2 2.7-16.7 6s-15.8 6-16.2 6c-.4 0-2 .5-3.6 1.2-1.5.6-3 1.2-3.3 1.3-.3.1-7.7 2.5-16.5 5.4-8.8 2.9-16.7 5.4-17.5 5.6-.8.2-9.1 2.7-18.5 5.5-17.4 5.2-19.2 5.7-23.4 6.6-1.4.3-2.8.7-3.3 1-.4.3-1.8.7-3 1-3.6.8-5.3 1.2-5.8 1.5-.3.1-.9.3-1.5.4-.5.2-1.2.4-1.5.5-.3.1-1.3.3-2.2.6-3.6.8-4.3 1-6.3 1.7-1.1.3-3.1.9-4.5 1.1-1.4.3-12.4 3.1-24.5 6.2s-22.7 5.7-23.5 5.9c-.8.2-1.6.4-1.7.5-.3.3-.2.2-5.8 1.5-4.9 1-4.6 1-7 1.8-1.1.3-3.1.8-4.5 1.1-4 .8-6.2 1.3-11 2.6-2.5.7-5.4 1.4-6.5 1.6-5.1.9-12.2 2.6-14.5 3.5-5.2 1.9-10.1 2-16.2.4-6.3-1.7-7.4-1.9-13.8-3.2-4.3-.9-4.2-.8-6-1.6-.8-.3-4.2-1.1-7.5-1.8-7-1.5-7.4-1.6-7.7-1.9-.2-.1-1.1-.3-2.2-.5-1-.2-4.1-.9-7-1.6-2.8-.7-5.3-1.4-5.6-1.4-.3-.1-1.4-.4-2.5-.8-1.1-.3-3.1-.8-4.5-1.1-1.4-.3-7.9-1.9-14.5-3.6-6.6-1.7-12.7-3.3-13.5-3.5-10.1-2.4-27.1-6.9-36-9.4-4.1-1.2-8.4-2.4-9.5-2.6-3.5-.8-38.7-11.2-48.9-14.5-5.5-1.8-10.4-3.3-11-3.4-.6-.1-3.3-1-6.1-2-2.7-1-7.2-2.6-10-3.6-28.1-10-39.4-14.4-61.5-24.2-9.3-4.1-44.2-21.9-45-22.9-.3-.4-2.7-1.9-5.5-3.4-2.7-1.6-9-5.4-13.8-8.7-4.8-3.2-9.2-5.8-9.7-5.8-.6 0-1-.4-1-.8s-1.3-1.6-3-2.5c-1.6-1-3.5-2.3-4.2-3-.7-.7-3-2.3-5-3.7-2.1-1.4-3.8-2.8-3.8-3.3 0-.4-.7-.7-1.5-.7s-2-.9-2.7-2c-.7-1.1-1.6-2-2-2-.4 0-1.7-.8-2.9-1.8-2.1-1.7-2.6-2.1-6.8-5.7l-2.3-2 1.7 4z"/><path d="M267.9 574.9c-8.7 5.9-16.8 11.5-18 12.4-2.3 1.7-5.9 4.1-10.4 6.9-1.1.7-3.6 2.5-5.6 4-2 1.6-4.1 2.8-4.7 2.8-.6 0-1.2.4-1.4.8-.1.5-7.9 6-17.3 12.3-9.3 6.3-17.2 11.6-17.5 11.9-.3.3-5.2 3.7-11 7.5-5.8 3.9-10.7 7.2-11 7.5-1.1 1.1-9.9 7-10.4 7-.6 0-3.6 2.4-6.2 4.8-.8.7-1.4 1-1.4.5 0-.4-.4-.3-.8.3s-3.4 2.8-6.7 4.9c-3.3 2.1-6.2 4-6.5 4.4-.3.3-7.9 5.5-17 11.6-9.1 6-16.7 11.2-17 11.5-.3.3-2.5 1.9-5 3.5-17.6 11.8-27 18.8-27.1 20.3 0 1.9 0 94.1.1 101.4v4.7l6.8.1H112c5.2 0 12 0 15-.1h16.3c4.5.1 12.3.1 17.2.1 5 .1 9.7.1 10.5.1h13.5c.6.1 5.7 0 11.5 0h122c6.3 0 12.9 0 14.5-.1 1.7-.1 3.5-.2 4-.2 4.2.2 39.2.3 46.5.1h16.3c4.5.1 12.3.1 17.2.1 5 .1 9.7.1 10.5.1h13.5c.6.1 5.7 0 11.5 0h122c6.3 0 12.9 0 14.5-.1 1.7-.1 3.5-.2 4-.2 4.2.2 39.2.3 46.5.1h16.3c4.5.1 12.3.1 17.2.1 5 .1 9.7.1 10.5.1h13.5c1.2.1 21.1 0 24 0H743l.1-3.8c0-4 0-92.7-.1-100.3 0-4.4-.2-4.6-5.5-7.9-3-1.8-5.5-3.7-5.5-4.2s-.5-.9-1.1-.9c-1.2 0-10.3-6-10.7-7.2-.2-.4-.8-.8-1.4-.8-.6 0-3.1-1.5-5.7-3.4-4.5-3.2-10.6-7.4-41.1-28.1-8-5.4-14.6-10.2-14.8-10.7-.2-.4-.8-.8-1.3-.8-1 0-22.4-14.4-25.6-17.3-1.3-1.1-2.3-1.7-2.3-1.3 0 .4-.6.2-1.2-.4-3.9-3.2-10.8-8-11.7-8-.5 0-1.1-.3-1.3-.8-.1-.4-5.2-4.1-11.3-8.2-6-4.1-15-10.3-20-13.7-4.9-3.5-9.7-6.6-10.5-7-.8-.4-1.7-.9-2-1.2-.3-.3-3.9-2.9-8-5.7-4.1-2.8-12.5-8.5-18.7-12.7-6.2-4.2-11.4-7.3-11.6-6.9-.3.4-4 7.4-8.2 15.7-4.3 8.2-10.9 21.1-14.8 28.5-3.8 7.4-10.4 20-14.4 28-4.1 8-7.9 15.1-8.5 15.7-.6.7-.7 1.3-.3 1.3.4 0 .2.6-.4 1.4-.7.8-3.8 6.5-7 12.8-3.2 6.2-9.4 18.3-13.8 26.8-11.6 22.3-24.3 47-29.9 58-2.6 5.2-5.2 9.6-5.6 9.8-.4.2-.8 1.2-.8 2.1 0 1-.8 2.9-1.9 4.2-1 1.3-2.2 3.5-2.6 4.9-.4 1.4-1.6 3.7-2.6 5.2-1.1 1.4-1.9 3.3-1.9 4.1 0 .9-.4 1.7-.9 1.9-.4.2-2.9 4.5-5.4 9.6-3.8 7.7-4.7 9-5.5 7.5-1-1.8-8.9-17.2-22.7-43.8-14.5-28-23.7-46-31-60-4-7.7-10.5-20.3-14.5-28-3.9-7.7-7.6-14.5-8.2-15.2-.6-.7-.8-1.3-.5-1.3.3 0-1.1-3-3.1-6.8-2.1-3.7-5.7-10.8-8.2-15.7-2.5-5-4.7-9.2-5-9.5-.3-.3-3.2-5.9-6.5-12.5s-6.5-12.7-7.1-13.5c-.6-.8-1.7-3.1-2.4-5-.8-1.9-1.6-3.7-2-4-.3-.3-2.9-5.2-5.9-11-2.9-5.8-5.6-10.8-6-11.1-.3-.3-7.6 4.2-16.2 10z"/></svg>